<svg xmlns="http://www.w3.org/2000/svg" viewBox="0 0 15 15" width="15" height="15">
	<style>
		tspan { white-space:pre }
		.shp0 { fill: #ffffff } 
	</style>
	<g id="FOOTER">
		<g id="FG">
			<path id="FG copy 3" class="shp0" d="M11.92 4.67L11.79 5.41C11.56 5.28 11.3 5.18 11.05 5.13C10.79 5.08 10.54 5.05 10.25 5.05C9.51 5.05 8.92 5.28 8.46 5.72C8 6.18 7.8 6.77 7.8 7.51C7.8 8.25 8 8.84 8.46 9.27C8.92 9.71 9.51 9.94 10.28 9.94C10.43 9.94 10.61 9.91 10.77 9.89C10.95 9.86 11.1 9.81 11.25 9.76L11.25 7.87L9.95 7.87L9.95 7.2L11.48 7.2L11.48 7.2L11.66 7.2C11.89 7.2 12.1 7.38 12.1 7.63L12.1 7.84L12.1 7.84L12.1 10.3C11.82 10.4 11.51 10.47 11.18 10.55C10.87 10.6 10.54 10.63 10.2 10.63C9.18 10.63 8.36 10.35 7.77 9.78C7.18 9.22 6.88 8.45 6.88 7.51C6.88 6.53 7.18 5.79 7.77 5.2C8.39 4.64 9.21 4.36 10.2 4.36C10.51 4.36 10.79 4.39 11.07 4.44C11.35 4.49 11.64 4.57 11.92 4.67L11.92 4.67ZM6.37 4.39L6.37 5.08L4.04 5.08L4.04 7.05L6.29 7.05L6.29 7.76L4.04 7.76L4.04 10.6L3.17 10.6C3.17 8.68 3.17 6.74 3.17 4.82C3.17 4.59 3.37 4.39 3.6 4.39C4.52 4.39 5.45 4.39 6.37 4.39L6.37 4.39ZM1.76 0.17L10.31 0.17L1.35 1.06C0.89 1.11 0.53 1.34 0.3 1.7L0.3 1.62C0.3 0.83 0.97 0.17 1.76 0.17L1.76 0.17ZM1.84 14.82L1.76 14.82C0.97 14.82 0.3 14.16 0.3 13.36L0.3 4.8L1.2 13.77C1.25 14.21 1.48 14.59 1.84 14.82L1.84 14.82ZM14.96 13.29L14.96 13.36C14.96 14.16 14.3 14.82 13.48 14.82L4.93 14.82L13.91 13.93C14.35 13.88 14.73 13.62 14.96 13.29L14.96 13.29ZM13.43 0.17L13.48 0.17C14.3 0.17 14.96 0.83 14.96 1.62L14.96 10.19L14.07 1.21C14.02 0.75 13.76 0.4 13.43 0.17Z" />
			<path id="FG copy 4" class="shp0" d="M11.92 4.67L11.79 5.41C11.56 5.28 11.3 5.18 11.05 5.13C10.79 5.08 10.54 5.05 10.25 5.05C9.51 5.05 8.92 5.28 8.46 5.72C8 6.18 7.8 6.77 7.8 7.51C7.8 8.25 8 8.84 8.46 9.27C8.92 9.71 9.51 9.94 10.28 9.94C10.43 9.94 10.61 9.91 10.77 9.89C10.95 9.86 11.1 9.81 11.25 9.76L11.25 7.87L9.95 7.87L9.95 7.2L11.48 7.2L11.48 7.2L11.66 7.2C11.89 7.2 12.1 7.38 12.1 7.63L12.1 7.84L12.1 7.84L12.1 10.3C11.82 10.4 11.51 10.47 11.18 10.55C10.87 10.6 10.54 10.63 10.2 10.63C9.18 10.63 8.36 10.35 7.77 9.78C7.18 9.22 6.88 8.45 6.88 7.51C6.88 6.53 7.18 5.79 7.77 5.2C8.39 4.64 9.21 4.36 10.2 4.36C10.51 4.36 10.79 4.39 11.07 4.44C11.35 4.49 11.64 4.57 11.92 4.67L11.92 4.67ZM6.37 4.39L6.37 5.08L4.04 5.08L4.04 7.05L6.29 7.05L6.29 7.76L4.04 7.76L4.04 10.6L3.17 10.6C3.17 8.68 3.17 6.74 3.17 4.82C3.17 4.59 3.37 4.39 3.6 4.39C4.52 4.39 5.45 4.39 6.37 4.39L6.37 4.39ZM1.76 0.17L10.31 0.17L1.35 1.06C0.89 1.11 0.53 1.34 0.3 1.7L0.3 1.62C0.3 0.83 0.97 0.17 1.76 0.17L1.76 0.17ZM1.84 14.82L1.76 14.82C0.97 14.82 0.3 14.16 0.3 13.36L0.3 4.8L1.2 13.77C1.25 14.21 1.48 14.59 1.84 14.82L1.84 14.82ZM14.96 13.29L14.96 13.36C14.96 14.16 14.3 14.82 13.48 14.82L4.93 14.82L13.91 13.93C14.35 13.88 14.73 13.62 14.96 13.29L14.96 13.29ZM13.43 0.17L13.48 0.17C14.3 0.17 14.96 0.83 14.96 1.62L14.96 10.19L14.07 1.21C14.02 0.75 13.76 0.4 13.43 0.17Z" />
		</g>
	</g>
</svg>