<svg xmlns="http://www.w3.org/2000/svg" viewBox="0 0 220 53" width="220" height="53">
	<style>
		tspan { white-space:pre }
		.shp0 { fill: #ffffff } 
		.txt1 { font-size: 52px;line-height: 13px;fill: #ffffff;font-weight: bold;font-family: "Myriad Pro";text-anchor: middle } 
	</style>
	<g id="HEADER">
		<g id="LOGO">
			<path id="Logo shape" fill-rule="evenodd" class="shp0" d="M60.56 21.08C60.63 30.05 50.78 35.16 44.42 39.67C38.61 43.79 33.03 48.85 33.03 48.85C33.03 48.85 27.86 43.9 21.58 39.78C15.1 35.54 5.37 30.15 5.44 21.17C5.58 4.83 24.17 0.37 32.98 12.41C41.39 0.85 60.42 4.69 60.56 21.08ZM32.99 15.47C26 5.93 11.25 9.46 11.15 22.43C11.09 29.54 18.8 33.82 23.94 37.18C28.92 40.45 33.02 44.37 33.02 44.37C33.02 44.37 37.45 40.36 42.06 37.09C47.1 33.52 54.91 29.47 54.85 22.35C54.75 9.35 39.66 6.31 32.99 15.47ZM29.67 20.53C30.21 20.53 30.87 20.64 31.63 20.86C32.4 21.09 32.92 21.2 33.17 21.2C33.49 21.2 34.02 21.07 34.76 20.82C35.49 20.57 36.13 20.44 36.67 20.44C37.56 20.44 38.35 20.68 39.04 21.16C39.43 21.43 39.82 21.8 40.2 22.27C39.62 22.76 39.2 23.2 38.94 23.58C38.45 24.27 38.21 25.04 38.21 25.87C38.21 26.79 38.47 27.62 38.98 28.35C39.49 29.09 40.08 29.55 40.73 29.75C40.46 30.63 40 31.56 39.37 32.53C38.41 33.98 37.46 34.7 36.51 34.7C36.14 34.7 35.62 34.58 34.95 34.35C34.3 34.11 33.74 33.99 33.29 33.99C32.83 33.99 32.3 34.11 31.7 34.36C31.1 34.61 30.61 34.74 30.24 34.74C29.1 34.74 27.99 33.78 26.9 31.86C25.81 29.96 25.27 28.1 25.27 26.27C25.27 24.58 25.68 23.2 26.51 22.13C27.35 21.06 28.4 20.53 29.67 20.53ZM36.49 16.26C36.52 16.36 36.54 16.44 36.54 16.51C36.55 16.59 36.55 16.66 36.55 16.73C36.55 17.19 36.45 17.7 36.23 18.24C36.01 18.79 35.67 19.3 35.2 19.77C34.8 20.17 34.4 20.43 34 20.57C33.75 20.65 33.37 20.71 32.85 20.75C32.87 19.66 33.15 18.71 33.71 17.91C34.27 17.11 35.2 16.56 36.49 16.26Z" />
			<text id="Animal Lovers" style="transform: matrix(0.458,0,0,0.458,259.077,15.903)" >
				<tspan x="0" y="52.42" class="txt1">Animal Lovers</tspan>
			</text>
		</g>
	</g>
</svg>